<?xml version="1.0" standalone="no"?>
<!DOCTYPE svg PUBLIC "-//W3C//DTD SVG 20010904//EN"
 "http://www.w3.org/TR/2001/REC-SVG-20010904/DTD/svg10.dtd">
<svg version="1.0" xmlns="http://www.w3.org/2000/svg"
 width="595.000000pt" height="842.000000pt" viewBox="0 0 595.000000 842.000000"
 preserveAspectRatio="xMidYMid meet">

<g transform="translate(0.000000,842.000000) scale(0.100000,-0.100000)"
fill="#000000" stroke="none">
<path d="M2795 7490 c-733 -51 -1343 -479 -1630 -1144 -100 -231 -131 -372
-146 -671 -15 -316 -52 -550 -110 -697 -25 -65 -179 -628 -223 -818 -134 -581
-129 -898 20 -1338 82 -242 187 -455 330 -668 l74 -111 88 22 c48 12 104 25
125 29 42 8 42 7 23 49 -7 18 -19 46 -26 62 -18 44 -70 213 -81 265 -53 251
-74 475 -65 680 10 217 56 488 107 639 10 29 17 57 14 61 -3 5 -2 10 2 12 5 1
26 48 48 103 l40 100 165 6 c91 4 166 6 168 4 1 -1 -8 -28 -20 -61 -34 -94
-28 -282 11 -343 7 -11 16 -8 47 17 21 18 44 32 51 32 7 0 70 28 139 62 69 34
132 61 140 61 7 0 11 4 8 9 -5 7 10 12 29 9 4 0 7 4 7 11 0 8 6 6 17 -5 9 -9
15 -18 12 -20 -2 -2 -18 -12 -35 -23 -99 -61 -343 -305 -384 -384 -7 -14 -21
-34 -30 -45 -34 -37 -135 -250 -168 -350 -42 -133 -59 -219 -71 -362 -33 -402
103 -806 375 -1114 197 -224 482 -394 784 -466 91 -22 133 -26 315 -29 214 -3
263 2 418 42 34 9 69 18 77 20 36 8 115 40 118 47 2 4 10 7 18 7 20 0 157 68
166 83 4 7 8 8 8 4 0 -5 18 5 39 22 21 17 43 31 49 31 6 0 16 -15 22 -33 10
-24 14 -27 17 -14 3 9 8 17 13 17 5 0 5 13 0 30 -10 35 6 52 25 27 7 -10 19
-17 28 -17 8 0 17 -3 20 -7 2 -5 2 -2 0 5 -2 8 -5 30 -8 50 -5 34 -2 39 37 67
94 67 247 272 336 450 107 214 143 357 150 607 8 291 -33 487 -151 723 -113
227 -255 399 -457 552 -41 32 -79 60 -84 64 -4 4 -5 12 -1 19 5 8 11 8 19 1 7
-6 16 -8 19 -4 4 3 7 1 7 -5 0 -7 6 -12 13 -12 7 0 73 -30 147 -66 74 -36 135
-64 136 -62 0 1 8 -3 17 -11 10 -7 17 -10 17 -5 0 4 13 -7 29 -25 32 -36 32
-37 56 39 20 60 24 201 7 255 l-9 30 156 0 156 -1 22 -54 c11 -30 26 -60 31
-66 6 -7 9 -14 6 -16 -2 -3 9 -49 26 -102 33 -107 74 -314 90 -446 22 -183 10
-492 -25 -705 -25 -146 -107 -432 -135 -470 -4 -5 -10 -20 -13 -32 -4 -19 -1
-23 16 -23 12 0 71 -13 130 -28 l108 -29 47 66 c227 314 407 744 473 1131 27
157 9 459 -42 728 -42 224 -204 840 -277 1057 -59 175 -85 348 -102 685 -5
107 -16 233 -25 280 -24 126 -80 290 -144 425 -252 530 -720 909 -1281 1039
-181 41 -457 61 -665 46z m503 -69 c315 -70 616 -241 778 -441 65 -81 128
-195 164 -293 26 -75 42 -223 29 -271 l-10 -36 -87 0 c-48 -1 -109 -3 -135 -5
-29 -3 -46 -1 -42 5 4 6 -4 6 -20 0 -32 -12 -38 -12 -31 -2 3 5 -7 9 -22 10
-15 0 -47 5 -72 11 -48 11 -348 10 -366 -1 -19 -13 -174 -19 -174 -8 0 6 -4 9
-10 5 -5 -3 -7 -12 -3 -20 3 -8 0 -15 -6 -15 -6 0 -11 5 -11 10 0 6 -62 10
-165 10 -137 0 -163 2 -159 14 3 8 1 16 -3 19 -12 7 -10 -34 1 -53 9 -13 8
-13 -7 -1 -20 16 -23 2 -4 -19 6 -8 -31 26 -84 76 -250 233 -549 305 -845 204
-99 -34 -224 -104 -294 -167 -26 -23 -50 -40 -54 -36 -3 3 -6 0 -6 -8 -1 -21
-44 -49 -60 -39 -19 12 -29 105 -19 180 47 354 358 673 799 821 200 67 296 79
580 75 203 -3 261 -7 338 -25z m-807 -859 c88 -38 121 -67 112 -100 -3 -12 -7
-22 -8 -22 -2 0 -47 9 -101 20 -152 32 -302 33 -501 5 -52 -7 -53 -7 -53 19 0
31 50 66 131 91 30 10 59 19 64 21 6 2 71 2 145 1 126 -3 140 -5 211 -35z
m-56 -214 c28 -5 88 -28 135 -50 148 -71 293 -239 349 -405 52 -155 55 -409 6
-562 -15 -47 -34 -95 -41 -107 l-15 -22 123 -4 c68 -3 124 -4 126 -3 1 1 -18
32 -43 69 -59 89 -86 177 -87 286 0 104 12 152 65 254 73 140 203 247 372 303
72 24 95 27 225 27 133 0 152 -2 225 -27 263 -92 435 -311 435 -554 0 -146
-58 -274 -175 -389 -121 -118 -267 -180 -455 -192 l-105 -7 100 -7 c55 -4 108
-7 117 -8 10 -1 17 -5 15 -10 -3 -12 82 -72 94 -65 5 4 8 1 7 -7 -2 -8 6 -13
19 -12 12 0 20 -3 17 -8 -3 -5 14 -26 38 -48 43 -39 66 -51 52 -27 -4 6 -5 10
-1 7 3 -3 6 -9 6 -15 3 -18 104 -114 114 -108 6 3 7 1 3 -5 -7 -11 91 -129
104 -125 4 1 6 -6 3 -17 -13 -50 -385 -165 -455 -141 -52 18 -151 23 -218 11
-124 -22 -244 -99 -309 -197 -34 -52 -39 -68 -15 -59 8 3 30 -2 47 -11 18 -10
34 -17 37 -18 13 -1 165 -80 168 -87 2 -5 8 -6 13 -2 13 8 50 -6 44 -17 -4 -5
0 -9 7 -9 7 0 30 -9 51 -20 21 -11 42 -18 47 -15 6 4 10 2 10 -4 0 -18 -18
-21 -47 -9 -15 7 -30 15 -33 18 -3 3 -9 6 -15 7 -5 2 -62 21 -125 42 -125 43
-245 68 -382 78 l-88 6 -2 51 -2 51 -3 -52 c-3 -45 -7 -53 -24 -53 -16 0 -19
7 -19 50 0 28 -4 50 -10 50 -5 0 -10 -22 -10 -49 l0 -48 -82 -7 c-195 -16
-361 -58 -503 -127 -52 -26 -82 -36 -89 -29 -5 5 -8 11 -5 13 5 4 123 60 229
109 47 22 108 51 137 65 29 14 57 22 62 18 17 -10 13 2 -15 46 -87 138 -274
230 -436 216 -41 -4 -76 1 -119 14 -34 11 -110 30 -168 43 -104 24 -238 69
-255 86 -5 5 8 29 30 55 22 26 38 52 36 58 -2 7 0 9 4 4 4 -4 39 23 78 60 79
75 135 125 152 136 7 4 36 -4 65 -18 81 -36 158 -53 248 -54 l81 0 -22 33
c-20 30 -26 33 -77 35 -159 6 -328 84 -438 204 -23 25 -45 42 -49 39 -4 -4 -5
-2 -2 3 4 6 -5 24 -19 40 -14 17 -22 24 -18 16 6 -9 4 -12 -4 -7 -6 4 -9 11
-6 16 3 5 -6 31 -21 57 -45 80 -73 180 -84 292 -30 320 91 604 325 759 143 96
298 126 470 90z m925 18 c0 -2 -7 -6 -15 -10 -8 -3 -15 -1 -15 4 0 6 7 10 15
10 8 0 15 -2 15 -4z m514 -36 c90 -24 142 -48 171 -80 l20 -22 -29 -25 c-26
-22 -36 -24 -75 -19 -156 22 -216 26 -398 27 -195 1 -201 2 -207 22 -6 25 7
43 48 64 105 55 328 70 470 33z m-1869 -20 c-3 -5 -12 -10 -18 -10 -7 0 -6 4
3 10 19 12 23 12 15 0z m2076 -1577 c13 -16 12 -17 -3 -4 -17 13 -22 21 -14
21 2 0 10 -8 17 -17z m-2699 -97 c265 -128 399 -177 643 -235 72 -17 147 -36
167 -41 47 -13 88 -61 88 -104 l0 -33 -42 39 c-23 21 -57 43 -77 48 -20 6
-130 19 -246 30 -225 22 -387 48 -379 62 3 4 -2 8 -10 8 -9 0 -30 9 -48 19
-17 11 -36 17 -41 14 -6 -3 -7 -1 -3 5 4 7 -9 16 -34 23 -22 7 -40 15 -40 18
0 4 -20 13 -45 20 -28 8 -45 19 -45 28 0 13 -2 13 -17 2 -15 -12 -16 -12 -10
3 3 10 1 20 -5 24 -7 4 -8 3 -4 -4 11 -19 -9 -14 -27 6 -10 10 -14 22 -10 27
5 4 3 5 -4 2 -11 -7 -47 6 -147 54 l-50 23 50 23 c33 15 68 23 106 23 52 0 75
-8 230 -84z m2749 67 c13 -16 12 -17 -3 -4 -17 13 -22 21 -14 21 2 0 10 -8 17
-17z m713 -72 l49 -24 -69 -27 c-83 -32 -150 -66 -159 -80 -4 -6 -11 -8 -16
-4 -5 3 -8 1 -7 -5 2 -6 -13 -21 -32 -33 -32 -21 -34 -21 -20 -3 14 19 14 19
-6 3 -11 -10 -24 -18 -28 -18 -12 0 -65 -43 -61 -50 2 -4 -2 -7 -10 -7 -8 0
-12 4 -10 8 3 4 -11 2 -30 -4 -19 -6 -35 -14 -35 -19 0 -4 -5 -8 -12 -8 -6 0
-19 -7 -28 -15 -24 -22 -146 -43 -380 -66 -291 -28 -296 -29 -357 -89 l-33
-32 0 26 c0 44 27 83 73 105 24 12 52 21 63 21 35 0 317 78 437 121 66 23 203
84 305 135 184 92 188 94 252 91 44 -2 81 -10 114 -26z m-3120 11 c3 -5 -1 -9
-9 -9 -8 0 -12 4 -9 9 3 4 7 8 9 8 2 0 6 -4 9 -8z m2571 -102 c3 -6 -1 -7 -9
-4 -18 7 -21 14 -7 14 6 0 13 -4 16 -10z m-2080 -597 c16 -36 15 -58 -3 -70
-23 -13 -31 -8 -55 34 -17 30 -17 32 0 42 27 16 50 13 58 -6z m1564 3 c10 -11
9 -21 -4 -45 -18 -36 -22 -37 -53 -15 -22 15 -22 16 -5 45 19 31 44 37 62 15z
m-621 -112 c371 -55 702 -272 907 -594 26 -41 52 -78 58 -81 5 -4 7 -11 4 -16
-3 -5 -1 -15 5 -23 8 -12 9 -12 4 3 -3 9 -2 17 2 17 14 0 89 -193 113 -290 31
-129 34 -418 5 -550 -101 -463 -429 -832 -871 -979 -243 -81 -518 -88 -765
-21 -362 98 -674 360 -840 703 -85 178 -123 351 -123 562 0 204 36 374 111
520 14 28 27 56 28 63 1 8 6 17 10 20 4 4 4 -1 1 -10 -11 -32 2 -19 30 30 15
26 57 88 94 137 285 386 752 580 1227 509z"/>
<path d="M1616 6404 c-23 -22 -9 -39 15 -18 10 9 16 21 13 25 -7 12 -10 11
-28 -7z m24 2 c0 -2 -8 -10 -17 -17 -16 -13 -17 -12 -4 4 13 16 21 21 21 13z"/>
<path d="M2886 6407 c3 -10 9 -15 12 -12 3 3 0 11 -7 18 -10 9 -11 8 -5 -6z"/>
<path d="M2916 6394 c-8 -20 -8 -24 2 -24 4 0 8 9 9 20 2 24 -3 26 -11 4z"/>
<path d="M3870 6406 c0 -2 14 -6 30 -8 17 -3 30 -1 30 4 0 4 -13 8 -30 8 -16
0 -30 -2 -30 -4z"/>
<path d="M3368 6393 c7 -3 16 -2 19 1 4 3 -2 6 -13 5 -11 0 -14 -3 -6 -6z"/>
<path d="M2682 5823 c-58 -28 -105 -113 -122 -220 -21 -127 19 -265 95 -331
62 -55 125 -55 184 0 64 60 109 205 96 307 -27 196 -136 302 -253 244z m126
-30 c21 -13 62 -69 62 -85 0 -3 -16 -12 -35 -18 -19 -6 -33 -15 -30 -20 3 -4
-3 -6 -13 -3 -10 2 -31 32 -47 66 -16 34 -30 65 -32 69 -6 9 28 16 52 11 11
-3 30 -12 43 -20z m-158 -403 c0 -4 21 -22 48 -40 26 -19 58 -45 72 -57 21
-20 23 -25 10 -34 -21 -14 -75 -4 -108 20 -34 24 -78 102 -87 156 l-7 40 36
-39 c20 -22 36 -43 36 -46z"/>
<path d="M3123 5780 c-63 -38 -113 -153 -113 -261 0 -101 57 -221 120 -254 34
-18 93 -20 123 -4 83 43 138 195 117 324 -28 169 -142 260 -247 195z m124 -20
c40 -24 67 -64 59 -87 -6 -15 -8 -15 -16 -3 -6 8 -10 11 -10 5 0 -16 -54 -38
-59 -24 -2 7 -16 36 -31 65 -16 29 -26 55 -22 58 11 12 48 5 79 -14z m-91
-410 c5 0 25 -14 44 -30 19 -16 40 -30 45 -30 29 -1 -26 -20 -57 -20 -63 0
-127 71 -145 161 -6 33 -6 33 49 -24 30 -31 59 -57 64 -57z"/>
<path d="M2748 4229 c-22 -12 -23 -52 -3 -69 8 -7 25 -10 39 -6 33 8 43 42 20
67 -19 21 -31 23 -56 8z m47 -34 c0 -13 -8 -21 -22 -23 -17 -3 -23 2 -23 16 0
10 3 22 7 26 13 13 38 1 38 -19z"/>
<path d="M3135 4226 c-11 -7 -29 -16 -40 -19 -18 -4 -18 -5 3 -6 12 0 22 -7
22 -15 0 -38 70 -46 84 -10 7 19 -19 64 -37 64 -7 0 -21 -6 -32 -14z m50 -31
c0 -23 -34 -33 -46 -14 -10 17 9 41 30 37 9 -2 16 -12 16 -23z"/>
<path d="M2943 4203 c15 -2 37 -2 50 0 12 2 0 4 -28 4 -27 0 -38 -2 -22 -4z"/>
<path d="M2835 3760 c3 -5 8 -10 11 -10 2 0 4 5 4 10 0 6 -5 10 -11 10 -5 0
-7 -4 -4 -10z"/>
<path d="M3083 3750 c-1 -11 2 -20 8 -20 5 0 9 9 9 20 0 11 -4 20 -8 20 -4 0
-8 -9 -9 -20z"/>
<path d="M3210 3728 c0 -19 2 -20 10 -8 13 19 13 30 0 30 -5 0 -10 -10 -10
-22z"/>
<path d="M2590 3710 c0 -5 5 -10 11 -10 5 0 7 5 4 10 -3 6 -8 10 -11 10 -2 0
-4 -4 -4 -10z"/>
<path d="M3327 3700 c-3 -11 -1 -20 4 -20 5 0 9 2 9 4 0 2 3 11 6 20 3 9 2 16
-4 16 -5 0 -12 -9 -15 -20z"/>
<path d="M3070 3640 c0 -25 4 -39 10 -35 6 3 10 19 10 35 0 16 -4 32 -10 35
-6 4 -10 -10 -10 -35z"/>
<path d="M2475 3660 c3 -5 8 -10 11 -10 2 0 4 5 4 10 0 6 -5 10 -11 10 -5 0
-7 -4 -4 -10z"/>
<path d="M3447 3664 c-4 -4 -7 -14 -7 -23 0 -11 3 -12 11 -4 6 6 10 16 7 23
-2 6 -7 8 -11 4z"/>
<path d="M3554 3606 c-8 -22 3 -33 18 -18 9 9 9 15 0 24 -9 9 -13 7 -18 -6z"/>
<path d="M2360 3600 c0 -5 7 -7 15 -4 8 4 15 8 15 10 0 2 -7 4 -15 4 -8 0 -15
-4 -15 -10z"/>
<path d="M3085 3540 c-5 -8 -22 -10 -46 -7 -26 3 -42 0 -50 -9 -10 -12 -2 -14
45 -14 42 0 58 4 63 15 7 20 -2 31 -12 15z"/>
<path d="M3528 3542 c-20 -4 -24 -17 -8 -27 15 -9 13 -132 -2 -138 -7 -3 3 -6
22 -6 20 0 30 3 23 7 -7 5 -13 39 -15 87 -3 70 -5 80 -20 77z"/>
<path d="M3660 3535 c-7 -9 -11 -18 -8 -20 3 -3 11 1 18 10 7 9 11 18 8 20 -3
3 -11 -1 -18 -10z"/>
<path d="M2886 3525 c-18 -14 -17 -15 24 -15 41 0 42 1 24 15 -10 8 -21 14
-24 14 -3 0 -14 -6 -24 -14z"/>
<path d="M2160 3460 c0 -5 5 -10 11 -10 5 0 7 5 4 10 -3 6 -8 10 -11 10 -2 0
-4 -4 -4 -10z"/>
<path d="M2410 3431 c0 -22 -1 -44 -2 -48 -2 -5 11 -9 27 -10 17 -1 24 0 18 3
-7 3 -13 20 -13 39 0 18 -7 38 -15 45 -13 11 -15 7 -15 -29z"/>
<path d="M3757 3463 c-4 -3 -7 -13 -7 -21 0 -12 3 -12 15 -2 8 7 15 16 15 21
0 11 -14 12 -23 2z"/>
<path d="M2550 3411 c0 -16 -6 -32 -12 -34 -7 -3 5 -6 27 -6 32 0 36 2 23 10
-10 5 -18 21 -18 34 0 14 -4 25 -10 25 -5 0 -10 -13 -10 -29z"/>
<path d="M2070 3370 c0 -5 5 -10 11 -10 5 0 7 5 4 10 -3 6 -8 10 -11 10 -2 0
-4 -4 -4 -10z"/>
<path d="M3840 3365 c-7 -8 -8 -15 -2 -15 5 0 15 7 22 15 7 8 8 15 2 15 -5 0
-15 -7 -22 -15z"/>
<path d="M1995 3270 c3 -5 8 -10 11 -10 2 0 4 5 4 10 0 6 -5 10 -11 10 -5 0
-7 -4 -4 -10z"/>
<path d="M3920 3270 c-8 -5 -11 -12 -7 -16 4 -4 15 0 24 9 18 18 8 23 -17 7z"/>
<path d="M3544 3117 c-565 -529 -521 -491 -569 -488 -32 1 -46 -3 -53 -15 -9
-17 -20 -11 -533 285 -112 65 -132 72 -127 44 2 -11 77 -61 188 -125 429 -249
426 -248 398 -248 -21 0 -28 -5 -28 -20 0 -16 7 -20 33 -20 40 0 59 12 52 32
-7 17 33 48 63 48 43 0 56 -49 20 -74 -19 -13 -25 -14 -42 -2 -19 12 -25 9
-68 -37 -51 -53 -56 -64 -33 -73 9 -4 31 9 55 32 54 51 76 56 126 27 22 -12
48 -23 57 -23 29 0 19 27 -19 49 -19 12 -34 27 -32 33 3 8 85 22 233 40 126
15 232 31 236 35 5 5 5 14 1 20 -6 9 -59 6 -221 -13 -117 -14 -215 -24 -217
-21 -3 2 25 33 63 68 37 35 86 82 109 104 23 22 61 58 85 79 253 228 398 368
392 382 -3 8 -10 14 -17 14 -6 -1 -75 -60 -152 -133z"/>
<path d="M1927 3173 c-4 -3 -7 -11 -7 -17 0 -6 5 -5 12 2 6 6 9 14 7 17 -3 3
-9 2 -12 -2z"/>
<path d="M3980 3165 c0 -8 7 -15 15 -15 8 0 15 7 15 15 0 8 -7 15 -15 15 -8 0
-15 -7 -15 -15z"/>
<path d="M3884 3149 c-12 -4 -24 -14 -27 -23 -6 -14 -4 -15 16 -1 20 13 26 13
42 2 25 -19 14 -57 -30 -106 -19 -21 -35 -41 -35 -45 0 -4 24 -6 52 -4 43 2
53 7 57 23 3 16 1 17 -12 6 -9 -7 -27 -11 -41 -9 l-25 3 34 39 c38 44 45 63
34 92 -9 25 -36 34 -65 23z"/>
<path d="M2198 3086 c5 -66 -3 -106 -23 -106 -17 0 -35 30 -35 62 -1 21 -2 21
-11 5 -26 -44 27 -97 70 -70 23 15 36 76 25 120 -15 59 -31 52 -26 -11z"/>
<path d="M4044 3055 c-17 -13 -17 -14 -2 -15 9 0 20 5 23 11 11 17 0 20 -21 4z"/>
<path d="M1820 2940 c0 -5 10 -10 23 -10 18 0 19 2 7 10 -19 13 -30 13 -30 0z"/>
<path d="M4093 2943 c-21 -8 -15 -22 7 -16 11 3 20 9 20 14 0 10 -8 10 -27 2z"/>
<path d="M4120 2820 c-12 -8 -11 -10 8 -10 12 0 22 5 22 10 0 13 -11 13 -30 0z"/>
<path d="M1798 2813 c6 -2 18 -2 25 0 6 3 1 5 -13 5 -14 0 -19 -2 -12 -5z"/>
<path d="M1778 2693 c6 -2 18 -2 25 0 6 3 1 5 -13 5 -14 0 -19 -2 -12 -5z"/>
<path d="M4130 2691 c0 -10 26 -9 36 2 4 4 -2 7 -14 7 -12 0 -22 -4 -22 -9z"/>
<path d="M1877 2642 c-37 -41 -5 -107 45 -94 18 4 19 3 8 -17 -6 -12 -26 -31
-43 -42 -28 -18 -29 -20 -7 -14 60 17 90 54 90 113 0 61 -57 94 -93 54z m57
-14 c29 -41 16 -76 -24 -63 -25 8 -37 50 -20 70 17 20 26 19 44 -7z"/>
<path d="M4028 2649 c-10 -5 -18 -14 -18 -20 0 -5 9 -4 19 3 15 9 23 9 35 -1
19 -16 11 -38 -17 -47 -21 -7 -21 -7 5 -16 32 -11 42 -32 27 -60 -9 -16 -17
-19 -45 -13 -36 6 -48 -9 -15 -20 57 -18 119 58 77 97 -10 10 -11 17 -2 30 22
37 -26 71 -66 47z"/>
<path d="M1763 2568 c2 -7 10 -13 17 -13 7 0 15 6 18 13 2 7 -5 12 -18 12 -13
0 -20 -5 -17 -12z"/>
<path d="M4140 2564 c0 -9 5 -14 12 -12 18 6 21 28 4 28 -9 0 -16 -7 -16 -16z"/>
<path d="M1778 2443 c6 -2 18 -2 25 0 6 3 1 5 -13 5 -14 0 -19 -2 -12 -5z"/>
<path d="M4138 2443 c6 -2 18 -2 25 0 6 3 1 5 -13 5 -14 0 -19 -2 -12 -5z"/>
<path d="M1790 2320 c0 -5 4 -10 9 -10 6 0 13 5 16 10 3 6 -1 10 -9 10 -9 0
-16 -4 -16 -10z"/>
<path d="M4120 2320 c19 -13 30 -13 30 0 0 6 -10 10 -22 10 -19 0 -20 -2 -8
-10z"/>
<path d="M1820 2200 c0 -13 11 -13 30 0 12 8 11 10 -7 10 -13 0 -23 -4 -23
-10z"/>
<path d="M4085 2200 c3 -5 13 -10 21 -10 8 0 12 5 9 10 -3 6 -13 10 -21 10 -8
0 -12 -4 -9 -10z"/>
<path d="M2002 2158 c-15 -15 -15 -51 0 -66 9 -9 7 -16 -7 -32 -36 -40 15 -92
67 -66 28 14 38 73 14 82 -14 5 -14 8 0 29 12 18 13 28 4 44 -12 24 -58 29
-78 9z m56 -15 c19 -36 -12 -59 -38 -28 -15 18 -6 45 14 45 9 0 19 -8 24 -17z
m-4 -86 c23 -17 17 -51 -8 -55 -27 -6 -48 25 -35 49 12 22 19 23 43 6z"/>
<path d="M1870 2085 c-14 -16 -10 -18 14 -9 9 3 16 10 16 15 0 14 -16 11 -30
-6z"/>
<path d="M4055 2080 c3 -5 8 -10 11 -10 2 0 4 5 4 10 0 6 -5 10 -11 10 -5 0
-7 -4 -4 -10z"/>
<path d="M1920 1975 c0 -10 7 -15 18 -13 21 4 19 22 -2 26 -10 2 -16 -3 -16
-13z"/>
<path d="M3996 1975 c-3 -8 -1 -15 4 -15 6 0 10 7 10 15 0 8 -2 15 -4 15 -2 0
-6 -7 -10 -15z"/>
<path d="M2000 1875 c-8 -9 -8 -15 -2 -15 12 0 26 19 19 26 -2 2 -10 -2 -17
-11z"/>
<path d="M2075 1779 c-4 -6 -5 -13 -2 -16 7 -7 27 6 27 18 0 12 -17 12 -25 -2z"/>
<path d="M3850 1770 c0 -5 5 -10 11 -10 5 0 7 5 4 10 -3 6 -8 10 -11 10 -2 0
-4 -4 -4 -10z"/>
<path d="M2380 1738 c0 -17 3 -19 12 -10 16 16 78 16 78 -1 0 -7 -4 -17 -8
-22 -5 -6 -23 -36 -40 -67 -22 -40 -28 -58 -19 -58 8 0 32 41 55 90 l41 90
-60 0 c-54 0 -59 -2 -59 -22z"/>
<path d="M3485 1739 c-4 -11 -4 -23 -1 -26 3 -4 6 1 6 10 0 12 9 17 31 17 17
0 28 4 24 10 -11 19 -53 11 -60 -11z"/>
<path d="M2165 1689 c-11 -17 1 -21 15 -4 8 9 8 15 2 15 -6 0 -14 -5 -17 -11z"/>
<path d="M3506 1691 c-3 -5 3 -11 14 -14 11 -3 22 -11 24 -19 2 -7 7 -22 11
-33 l7 -20 8 20 c13 30 12 33 -10 55 -21 21 -45 26 -54 11z"/>
<path d="M3760 1680 c0 -5 5 -10 11 -10 5 0 7 5 4 10 -3 6 -8 10 -11 10 -2 0
-4 -4 -4 -10z"/>
<path d="M2260 1610 c-12 -23 2 -27 19 -6 8 9 8 16 2 20 -6 4 -15 -3 -21 -14z"/>
<path d="M2973 1620 c-13 -5 -23 -12 -23 -15 0 -10 27 -5 46 10 21 16 11 18
-23 5z"/>
<path d="M3665 1600 c3 -5 8 -10 11 -10 2 0 4 5 4 10 0 6 -5 10 -11 10 -5 0
-7 -4 -4 -10z"/>
<path d="M2362 1546 c1 -10 8 -17 13 -17 15 1 12 24 -3 29 -9 3 -13 -2 -10
-12z"/>
<path d="M3555 1539 c-4 -6 -5 -13 -2 -16 7 -7 27 6 27 18 0 12 -17 12 -25 -2z"/>
<path d="M2476 1484 c-9 -24 -7 -28 9 -14 17 14 20 30 6 30 -5 0 -12 -7 -15
-16z"/>
<path d="M3451 1474 c0 -11 3 -14 6 -6 3 7 2 16 -1 19 -3 4 -6 -2 -5 -13z"/>
<path d="M2595 1447 c-4 -10 -5 -21 -1 -24 10 -10 18 4 13 24 -4 17 -4 17 -12
0z"/>
<path d="M3330 1430 c0 -5 5 -10 10 -10 6 0 10 5 10 10 0 6 -4 10 -10 10 -5 0
-10 -4 -10 -10z"/>
<path d="M2715 1417 c-4 -10 -5 -21 -1 -24 10 -10 18 4 13 24 -4 17 -4 17 -12
0z"/>
<path d="M2842 1390 c0 -14 2 -19 5 -12 2 6 2 18 0 25 -3 6 -5 1 -5 -13z"/>
<path d="M3210 1400 c0 -5 5 -10 11 -10 5 0 7 5 4 10 -3 6 -8 10 -11 10 -2 0
-4 -4 -4 -10z"/>
<path d="M2955 1370 c3 -5 10 -10 16 -10 5 0 9 5 9 10 0 6 -7 10 -16 10 -8 0
-12 -4 -9 -10z"/>
<path d="M1987 1403 c-3 -4 -8 -21 -11 -38 -6 -27 -4 -30 17 -30 18 0 24 6 25
26 2 26 -22 58 -31 42z"/>
<path d="M2049 1329 c-8 -15 -7 -24 2 -35 10 -12 13 -12 25 3 18 24 17 40 -1
47 -9 3 -19 -3 -26 -15z"/>
<path d="M1961 1304 c0 -11 3 -14 6 -6 3 7 2 16 -1 19 -3 4 -6 -2 -5 -13z"/>
<path d="M3922 1108 c-6 -6 -12 -34 -12 -61 0 -26 -3 -46 -7 -44 -5 3 -17 1
-28 -4 -15 -6 -11 -8 19 -8 33 -1 38 -4 33 -20 -4 -17 2 -20 43 -26 59 -8 134
10 126 31 -4 10 2 14 19 14 14 0 25 5 25 10 0 6 -7 10 -15 10 -9 0 -18 7 -21
15 -5 12 -9 12 -30 -1 -49 -33 -120 2 -133 66 -5 25 -9 28 -19 18z"/>
<path d="M2000 1094 c0 -31 -40 -73 -76 -80 -28 -5 -42 -2 -64 14 l-28 21 -4
-24 c-3 -15 0 -26 9 -29 9 -4 12 -13 8 -25 -4 -15 1 -20 26 -25 44 -8 68 -8
112 5 31 8 37 14 32 30 -5 15 -1 19 17 20 13 0 17 3 11 6 -7 2 -13 17 -13 31
0 37 -11 72 -21 72 -5 0 -9 -7 -9 -16z"/>
<path d="M4158 993 c7 -3 16 -2 19 1 4 3 -2 6 -13 5 -11 0 -14 -3 -6 -6z"/>
</g>
</svg>
